<?xml version="1.0" encoding="UTF-8"?>
<svg width="50" height="50" version="1.1" viewBox="0 0 13.229167 13.229167" xmlns="http://www.w3.org/2000/svg" xmlns:cc="http://creativecommons.org/ns#" xmlns:dc="http://purl.org/dc/elements/1.1/" xmlns:rdf="http://www.w3.org/1999/02/22-rdf-syntax-ns#">
 <metadata>
  <rdf:RDF>
   <cc:Work rdf:about="">
    <dc:format>image/svg+xml</dc:format>
    <dc:type rdf:resource="http://purl.org/dc/dcmitype/StillImage"/>
    <dc:title/>
   </cc:Work>
  </rdf:RDF>
 </metadata>
 <style type="text/css">.st0{fill:#6DB33F;}
	.st1{fill:#FFFFFF;}</style>
 <g transform="translate(-1.085e-7 -283.77)">
  <g transform="matrix(.26458 0 0 .26458 .16557 260.3)">
   <g transform="translate(-32.325)">
    <path transform="translate(31.699 88.695)" d="m25.039 2.5c-5.5249-0.019344-11.062 0.33215-12.539 1.1094-2.9533 1.5544-12.552 18.677-12.5 21.477 0.051996 2.7991 10.275 20.386 12.5 21.477 2.2253 1.0903 22.567 1.3997 25 0 2.4333-1.3996 12.5-19.039 12.5-21.477 2.1e-5 -2.4381-9.6507-20.077-12.5-21.477-1.4247-0.69985-6.9361-1.09-12.461-1.1094zm-13.727 6.4023c0.49324 0.03687 0.92208 0.21229 1.2988 0.5293 0.67933 0.57162 0.67578 0.531 0.67578 6.7285 0 6.1151-0.010325 6.0134 0.58789 5.3691 0.89937-0.96867 2.882-2.1404 4.4434-2.625 1.5854-0.49202 2.5753-0.54919 8.6738-0.50391 6.4334 0.047798 6.5827 0.067047 8.6738 1.0547 2.6883 1.2697 4.3038 3.2741 5.1758 6.4238 0.22625 0.8172 0.24233 1.2294 0.28711 7.1133 0.033034 4.3403 0.010372 6.3747-0.078125 6.6719-0.34704 1.1654-1.8833 1.811-3.0996 1.3027-1.0201-0.42624-1.3027-1.0078-1.3027-2.6895 0-0.69164-0.032661-1.2905-0.074219-1.332-0.041564-0.041529-0.45268 0.3065-0.91211 0.77344-1.5187 1.5435-3.359 2.5707-5.6621 3.1602-1.1323 0.28978-1.2521 0.29757-5.668 0.32422-2.4808 0.014944-4.8234-0.010795-5.2051-0.056641-4.2608-0.51184-8.0456-3.348-9.5723-7.1719-0.74534-1.8669-0.7207-1.4182-0.7207-13.135v-10.65c0.21824-0.76567 1.2881-1.2011 1.9629-1.2773 0.17872-0.018446 0.35121-0.022056 0.51562-0.0097656zm13.959 14.549c-0.3445 0-1.4856 1.1773-1.8496 1.9082-0.48933 0.98266-0.5452 1.7344-0.50977 6.707l0.03125 4.627 0.39258 0.19531c0.37018 0.1848 0.4233 0.18365 0.9375-0.011719 0.29956-0.11383 0.83598-0.39884 1.1914-0.63476 1.4206-0.94293 2.716-2.7768 3.166-4.4805 0.25662-0.97151 0.25818-2.9209 0.003907-3.8828-0.40284-1.5239-1.3816-3.0634-2.5195-3.9629-0.32437-0.2564-0.70435-0.46484-0.84375-0.46484z" fill="#6db33f" stroke-width=".10253"/>
   </g>
  </g>
 </g>
 <style type="text/css">.st0{fill:#6DB33F;}
	.st1{fill:#FFFFFF;}</style>
 <g transform="matrix(.66886 0 0 .66886 2.1962 -187.57)">
  <g transform="matrix(.26458 0 0 .26458 .16557 260.3)">
   <g transform="translate(-32.325)"></g>
  </g>
 </g>
</svg>
