<?xml version="1.0" encoding="UTF-8"?>
<svg width="50" height="50" version="1.1" viewBox="0 0 13.229167 13.229167" xmlns="http://www.w3.org/2000/svg" xmlns:cc="http://creativecommons.org/ns#" xmlns:dc="http://purl.org/dc/elements/1.1/" xmlns:rdf="http://www.w3.org/1999/02/22-rdf-syntax-ns#">
 <metadata>
  <rdf:RDF>
   <cc:Work rdf:about="">
    <dc:format>image/svg+xml</dc:format>
    <dc:type rdf:resource="http://purl.org/dc/dcmitype/StillImage"/>
    <dc:title/>
   </cc:Work>
  </rdf:RDF>
 </metadata>
 <g transform="translate(0 -283.77)">
  <g transform="matrix(.26458 0 0 .26458 .16557 260.3)">
   <g transform="translate(-32.325)">
    <g></g>
    <g transform="matrix(.8368 0 0 .8368 135.56 18.735)">
     <path d="m-104.77 142.05c-7.6126-0.91448-14.375-5.9806-17.103-12.813-1.3317-3.3356-1.2878-2.5353-1.2878-23.469v-19.026c0.38992-1.368 2.3007-2.1478 3.5063-2.284 1.2773-0.13183 2.3452 0.17427 3.2426 0.92946 1.2137 1.0213 1.2064 0.94874 1.2064 12.022 0 10.926-0.02 10.743 1.0488 9.5921 1.6069-1.7307 5.1502-3.8233 7.9397-4.689 2.8325-0.87908 4.6015-0.98193 15.497-0.90102 11.494 0.0854 11.761 0.11779 15.497 1.8824 4.8031 2.2685 7.6898 5.8518 9.2478 11.479 0.40423 1.4601 0.43397 2.1954 0.51398 12.708 0.05902 7.7547 0.01552 11.391-0.14259 11.922-0.62004 2.0822-3.3641 3.2356-5.5373 2.3276-1.8226-0.76155-2.3255-1.8007-2.3255-4.8053 0-1.2357-0.06076-2.3075-0.13501-2.3818-0.07426-0.0742-0.80661 0.54757-1.6274 1.3818-2.7134 2.7578-6.004 4.5943-10.119 5.6474-2.023 0.51773-2.2354 0.52984-10.125 0.57746-4.4323 0.0267-8.6166-0.0184-9.2985-0.10031zm11.321-8.7632c2.5381-1.6847 4.8529-4.9598 5.6569-8.0037 0.45849-1.7358 0.4627-5.2177 0.0084-6.9363-0.71973-2.7227-2.4684-5.4731-4.5015-7.0801-0.57954-0.4581-1.2575-0.8329-1.5065-0.8329-0.6155 0-2.6545 2.1036-3.3048 3.4095-0.87427 1.7557-0.97674 3.1002-0.91343 11.985l0.0589 8.2653 0.70056 0.34974c0.66138 0.33018 0.75499 0.32906 1.6737-0.02 0.53522-0.20337 1.4927-0.71463 2.1277-1.1361z" fill="#b7b7b7" stroke-width=".20663"/>
    </g>
   </g>
  </g>
 </g>
 <style type="text/css">.st0{fill:#6DB33F;}
	.st1{fill:#FFFFFF;}</style>
</svg>
