<?xml version="1.0" encoding="UTF-8"?>
<!-- Created with Inkscape (http://www.inkscape.org/) -->
<svg width="50" height="50" version="1.1" viewBox="0 0 13.229166 13.229167" xmlns="http://www.w3.org/2000/svg" xmlns:cc="http://creativecommons.org/ns#" xmlns:dc="http://purl.org/dc/elements/1.1/" xmlns:rdf="http://www.w3.org/1999/02/22-rdf-syntax-ns#">
 <metadata>
  <rdf:RDF>
   <cc:Work rdf:about="">
    <dc:format>image/svg+xml</dc:format>
    <dc:type rdf:resource="http://purl.org/dc/dcmitype/StillImage"/>
    <dc:title/>
   </cc:Work>
  </rdf:RDF>
 </metadata>
 <g>
  <path transform="scale(.26458)" d="m25.961 1.6875v0.00195c-3.2224 0.030236-4.7523 0.47177-8.7344 2.5273-1.9549 1.0091-3.9828 1.9957-4.5059 2.1914-0.52334 0.19578-0.95895 0.42619-0.96875 0.51172-0.02389 0.20825 2.2483 0.084884 2.8711-0.15625 0.2718-0.10507-0.23964 0.39325-1.1367 1.1055-2.0893 1.6587-2.3661 2.5572-2.0605 6.6855 0.24523 3.3133 0.39536 4.8858 0.63672 5.5859 0.1594 0.76305 0.19049 1.1436 0.32227 1.627 0.04531 0.14967 0.09684 0.29899 0.13672 0.41797-0.46627-0.43038-1.0808-0.86984-1.6426-0.91406-0.06008-0.0038-0.12199-0.0039-0.18164-0.0039v-0.0039c-0.41756 0.0076-0.8195 0.1682-1.1582 0.5293-0.53483 0.5698-1.0017 1.7074-1.1836 3.291-0.33184 2.8885 0.90418 5.7728 2.4668 6.9336 0.26916 0.2245 0.50345 0.48838 0.84961 0.6543 0.63647 0.33676 0.78216 0.27477 1.2617 0.4043 0.51666 5.3969 2.2438 7.1674 6.1816 10.965 2.145 2.0686 2.6694 2.4706 4.2793 3.2676 6.7901 3.3613 13.149-0.59023 15.977-12.189 0.55627-2.2819 0.61484-3.0668 0.52344-6.9492-0.07552-3.2074 0.0562-5.7597 0.49219-9.5547 0.7134-6.2094 0.57966-8.3278-0.68164-10.766-0.46358-0.89601-1.2773-2.0031-1.8086-2.4609-1.9162-1.6511-5.9028-3.0867-9.5195-3.5469-0.83464-0.1062-1.6509-0.1611-2.416-0.1543z" fill="#f9f6f1" stroke="#f9f6f1"/>
  <path transform="translate(0 -283.77)" d="m6.8688 284.22v5.2e-4c-0.85258 8e-3 -1.2574 0.12482-2.311 0.66869-0.51723 0.267-1.0538 0.52802-1.1922 0.57981-0.13847 0.0518-0.25372 0.11277-0.25632 0.1354-0.00632 0.0551 0.59486 0.0224 0.75964-0.0414 0.071913-0.0278-0.063405 0.10405-0.30076 0.29249-0.55279 0.43887-0.62603 0.6766-0.54519 1.7689 0.064883 0.87665 0.10461 1.2927 0.16847 1.4779 0.042174 0.20189 0.0504 0.30257 0.085266 0.43047 0.011988 0.0396 0.02562 0.0791 0.036173 0.11058-0.12337-0.11387-0.28596-0.23014-0.4346-0.24184-0.015896-1e-3 -0.032277-1e-3 -0.048059-1e-3v-1e-3c-0.11048 2e-3 -0.21682 0.0445-0.30644 0.14004-0.14151 0.15076-0.26503 0.45175-0.31316 0.87075-0.087799 0.76426 0.23923 1.5274 0.65267 1.8345 0.071215 0.0594 0.13321 0.12922 0.22479 0.17312 0.1684 0.0891 0.20695 0.0727 0.33383 0.10697 0.1367 1.4279 0.59368 1.8964 1.6356 2.9011 0.56754 0.54733 0.70628 0.65369 1.1322 0.86455 1.7965 0.88934 3.479-0.15617 4.2271-3.2251 0.14718-0.60376 0.16268-0.81142 0.13849-1.8386-0.01998-0.84862 0.01487-1.5239 0.13022-2.528 0.18875-1.6429 0.15337-2.2034-0.18035-2.8484-0.12266-0.23707-0.33794-0.52999-0.47852-0.65113-0.50699-0.43686-1.5618-0.81669-2.5187-0.93844-0.22083-0.0281-0.4368-0.0426-0.63924-0.0408zm3.0432 2.5456c0.088273 0.0121 0.20341 0.20809 0.30851 0.44906 0.22137 0.50758 0.28068 1.1372 0.22014 2.3239-0.0069 0.36551-0.01406 0.74601-0.01912 1.0981-0.0028 0.22522-0.0025 0.33106-0.0016 0.45578 0.07905 1.2511-0.33261 3.2386-1.1979 4.3284-0.35671 0.47518-0.69317 0.7688-1.3746 0.95705-0.56653 0.20081-1.29 0.0168-1.8712-0.35554-0.51803-0.3318-1.3643-1.1565-1.6702-1.6273-0.35074-0.53978-0.70735-1.0669-0.7984-1.9208-0.04591-0.43053-0.1647-1.2661-0.18707-1.2914-0.022984-0.0259 0.051645 0.7702 0.083716 1.1989 0.00418 0.0558 0.00993 0.0808 0.014986 0.13384-0.28715-0.12714-0.48706-0.38919-0.59788-0.52761-0.39783-0.55149-0.55444-0.99207-0.48214-1.6195 0.081099-0.70596 0.53655-1.0495 0.84801-0.62736 0.072012 0.11213 0.22583 0.25063 0.22583 0.25063s0.017298-0.0828 0.00362-0.17621c0.050426 0.0346 0.121 0.0508 0.18655 0.0641 0.13651 0.0339 0.28046 0.0498 0.4315 0.0594 0.025908 2e-3 0.051597 3e-3 0.077515 4e-3 0.13089 6e-3 0.26719 7e-3 0.38964 7e-3 0.11611 5e-4 0.19998-3e-3 0.2899 4e-3 -0.00214 6e-3 -0.00454 0.0118-0.00672 0.0181-0.027649 0.0714-0.064404 0.15489-0.087333 0.24443-0.00106 3e-3 -0.0018 7e-3 -0.00259 0.0103-0.021857 0.0834-0.031091 0.17887-0.00568 0.2713 0.033704 0.11321 0.12469 0.1728 0.20205 0.1819-0.046593-0.0609-0.073187-0.13725-0.065112-0.20153 0.00314-0.0662 0.026114-0.13197 0.044958-0.21394 0-2e-3 8.731e-4 -3e-3 0.00103-4e-3 0.020836-0.084 0.040624-0.17368 0.039791-0.26717 0.00274-0.0883-0.026906-0.17929-0.086816-0.22066 0.00956 0.0566-0.00595 0.10265-0.024805 0.15555-0.084601-0.0388-0.18148-0.0611-0.2899-0.0796-0.1293-0.0226-0.26375-0.035-0.40101-0.0413-0.022855-9.8e-4 -0.045955-2e-3 -0.068729-3e-3 -0.14888-5e-3 -0.29333-2e-3 -0.42685-4e-3 -0.082396-6e-3 -0.14624 7e-3 -0.20309-0.0134-0.0082-0.0375-0.024538-0.0744-0.047025-0.10852 0.00391-0.0472 0.00568-0.0752 0.010335-0.15761 0.01202-0.14389 0.00355-0.29559-0.00206-0.43408 0.01805-0.0825 0.017052-0.16898 0.017052-0.16898s0.047516 0.12671 0.10387 0.28163c0.040109 0.2988 0.28223 0.45805 0.2899 0.44804 0 0 0.10103-0.48127 0.21239-0.69918 0.16406-0.3211 0.27607-0.50057 0.28474-0.90021-0.017534-0.48494-0.042093-0.531 0.18552-0.66921 0.19294-0.14656 0.31693-0.18024 0.57309-0.15554 0.183 0.0177 0.21285 0.0329 0.3421 0.0615-0.10793 0.0503-0.097201 0.0219-0.23978 0.0935-0.10605 0.0284-0.42046 0.0383-0.40463 0.0512 0.014838 0.0121 0.35554 0.0504 0.49661 0.0703 0.24754 0.035 1.4302-0.18852 2.0314-0.31885 0.054353-0.0118 0.10464-0.0183 0.12712-0.0248-0.43181 0.25976-0.95822 0.34932-1.5999 0.43666 0.096797 0.0629 0.51616 0.0836 0.87126 0.0703 0.29093-0.0109 0.5892-0.0118 0.68161-0.0284 0.05986-0.0108 0.16155-0.0298 0.24081-0.0667-0.25482 0.24436-0.95009 0.38123-1.28 0.55759 0.78716 0.0607 2.2831-0.47 3.13-0.99064 0.1987-0.16886 0.44434-0.35783 0.44028-0.36277 0.011401-6e-3 0.023564-8e-3 0.036173-7e-3zm-4.0607 2.3332c-0.23637 3e-3 -0.34248 0.0367-0.50643 0.1142-0.16169 0.0765-0.31261 0.19118-0.31574 0.21808-0.00314 0.0268 0.34888 0.0483 0.76274 0.0842 0.4138 0.0358 0.89703 0.1129 1.0738 0.17105 0.47195 0.15526 0.48686 0.1548 0.55966-7e-3 0.032467-0.0643 0.14577-0.10735 0.11679-0.16484-0.068891-0.13691-0.45084-0.31439-1.0842-0.39016-0.27616-0.0174-0.46486-0.0266-0.60668-0.0248zm3.3156 0.47904c-0.20956 4e-3 -0.40576 0.0225-0.48628 0.0486-0.28002 0.0907-0.44595 0.37122-0.49299 0.7984-0.081944-0.074-0.20655-0.11947-0.33951-0.12454-0.00479 1e-5 -0.00979 0-0.01447 0-0.18401-0.0139-0.36693 0.0431-0.4408 0.1695 0.13271-0.0588 0.25469-0.0428 0.43408-0.0382 0 0 0.00736 1e-3 0.00723 1e-3 0.13977 0.0122 0.24823 0.0191 0.34727 0.0589-0.033579 0.42328 0.042049 0.9788 0.23099 1.6299 0.13136 0.4526 0.11191 0.58407-0.082682 0.56172-0.059982-7e-3 -0.21863 0.0288-0.35243 0.0796-0.18752 0.0712-0.27121 0.0704-0.36535-5e-3 -0.067168-0.0535-0.22686-0.10929-0.35502-0.12402-0.12817-0.0147-0.287-0.0883-0.35295-0.1633-0.065942-0.0751-0.1239-0.10249-0.12867-0.061-0.014489 0.12618 0.18228 0.28528 0.46147 0.37362 0.40563 0.12835 0.60455 0.14566 0.89504 0.0786 0.55288-0.12766 0.556-0.13641 0.31419-1.0459-0.24919-0.93731-0.25516-1.0533-0.058394-1.1312 0.072101-0.0285 0.22479-0.0522 0.22479-0.0522-0.011168 0.0238 0.026548 0.1216 0.058911 0.16692 0.2065 0.23019 0.33159 0.11985 0.47852 0.0424-0.071195 0.0903-0.19683 0.0984-0.31058 0.15348 0.41805 0.0867 0.46241-0.13742 0.43822-0.37362 0.030197-4e-3 0.11146 0.0376 0.19792 0.0656 0.1081 0.0351 0.25155 0.0923 0.31884 0.12764 0.18172 0.0954 0.20801-0.0381-0.020153-0.22789-0.2533-0.21095-0.81766-0.31481-1.1648-0.21446-0.29174 0.0843-0.36446 0.0801-0.31781-0.0594 0.00651-5e-4 0.011112-3e-3 0.01447-8e-3 0.00653-9e-3 0.00825-0.0249 0.010335-0.0403 0.00616-5e-4 0.011811-5.5e-4 0.018087-2e-3 0.058247-6e-3 0.11619-4e-3 0.17932-1e-3 0.17299 8e-3 0.34048 0.0271 0.52917 0.0517 0.057441 8e-3 0.11464 0.0157 0.1726 0.0233 0.38372 0.0503 0.66597 0.0969 0.95136 0.23048-0.22828-0.20534-0.55527-0.31435-0.93431-0.36277-0.058961-7e-3 -0.11773-0.0132-0.1757-0.0181-0.19039-0.0169-0.37278-0.0174-0.54622 8e-3 -0.063699 9e-3 -0.12515 0.0211-0.18242 0.0418-0.00191 5.1e-4 -0.00419 2e-3 -0.0062 2e-3 0-1e-3 6.879e-4 -2e-3 0.00103-3e-3 0.10808-0.24091 0.54973-0.32909 1.2723-0.25373 0.52459 0.0547 0.67856 0.10858 0.67179 0.0186-0.01392-0.18556-0.28055-0.35509-0.70073-0.40566v-5.3e-4c-0.060004-7e-3 -0.12313-0.0125-0.18914-0.0145-0.068964-2e-3 -0.13995-2e-3 -0.20981-1e-3zm-3.6613 0.10232c-0.046373-5.1e-4 -0.092071 3e-5 -0.13746 1e-3 -0.098642 2e-3 -0.19224 9e-3 -0.28215 0.0212-0.057021 8e-3 -0.11283 0.015-0.16278 0.0362 0.054668-3e-3 0.10409 8e-3 0.16278 0.016 0.091632 0.0137 0.17417 0.0282 0.27389 0.045 0.2031 0.0342 0.51457 0.0849 0.74001 0.12092 0.00214 0 0.051629 8e-3 0.053743 9e-3 0.25253 0.0401 0.46709 0.0729 0.69867 0.12041 0.19971 0.0467 0.34889 0.0527 0.47542 0.16433-0.078923-0.14666-0.25419-0.22378-0.4377-0.29094-0.22433-0.0878-0.46753-0.14673-0.7214-0.18655-0.013152-2e-3 -0.026122-4e-3 -0.039274-6e-3 -0.065549-0.01-0.13059-0.0184-0.19534-0.0253-0.14568-0.0156-0.28928-0.0241-0.4284-0.0253zm0.60771 0.28525c-0.21753 2e-3 -0.433 0.0473-0.60927 0.13488-0.18033 0.0895-0.35116 0.19063-0.37982 0.22479-0.10623 0.12659 0.03611 0.154 0.25942 0.0501 0.11951-0.0556 0.27776-0.14592 0.27078-0.10542 0.00514 0.0197 0.00812 0.0773 0.040824 0.13075 0.076691 0.20844 0.38805 0.3551 0.59635 0.14056 0.052486-0.0389 0.11107-0.13755 0.12196-0.12144-0.026581 0.16111-0.18286 0.25396-0.41703 0.24649 0.23247 0.0871 0.37802 0.046 0.49299-0.18552 0.050641-0.11336 0.037142-0.19023 0.066146-0.23926 0.043086-0.0164 0.16675 0.045 0.25632 0.0744 0.29281 0.0961 0.29088-0.0416-0.00259-0.19586-0.14131-0.0743-0.30741-0.12196-0.47956-0.14262-0.071731-9e-3 -0.14401-0.0126-0.21652-0.0119zm1.1937 0.29249c-0.019058 0.134-0.030409 0.32937-0.074414 0.47542-0.034857 0.1142-0.11359 0.22351-0.22221 0.26097-0.18004 0.0726-0.38945 0.0436-0.61237 0.0114-0.018058-2e-3 -0.036195-5e-3 -0.05426-8e-3 -0.5226-0.0816-1.034-0.22503-1.4397-0.31161 0.36855 0.17428 0.87677 0.3766 1.4154 0.4656 0.024207 4e-3 0.048557 8e-3 0.07338 0.0124 0.22164 0.0354 0.45716 0.0473 0.66921-0.0496 0.15101-0.075 0.23474-0.22153 0.25632-0.36277 0.025972-0.17267 0.00135-0.35333-0.011369-0.49351zm2.8717 0.37517c-0.03527 0.0748-0.05854 0.15161-0.07752 0.21859-0.01444 0.0524-0.02805 0.10559-0.04547 0.16382-0.03463 0.1099-0.081247 0.22522-0.16485 0.28422-0.092119 0.0758-0.22424 0.0905-0.36587 0.092-0.029055 5e-4 -0.058201 0-0.087333 0-0.36769-0.014-0.78867-0.1127-1.0904-0.16381 0.2877 0.13778 0.6707 0.289 1.0826 0.31367 0.03113 2e-3 0.063639 4e-3 0.096118 4e-3 0.15816 0 0.32348-0.0352 0.45062-0.1447 0.11039-0.10506 0.1501-0.24493 0.16433-0.36742 0.0098-0.0807 0.0312-0.33097 0.03772-0.40049zm-4.177 2.8686c0.49283 0.35583 0.76794 0.44122 1.0351 0.50591 0.56574 0.16628 1.3857 0.19382 1.7203-0.0997-0.83544 0.059-1.6346 6e-3 -2.4505-0.30282-0.17291-0.0848-0.25775-0.1008-0.28939-0.10335-0.01056-5e-4 -0.015502 0-0.015502 0zm-0.19275 1.4309c-0.022426-2e-3 -0.1248 0.0482-0.22479 0.10335-0.1306 0.0721-0.23953 0.1473-0.24185 0.16743-0.0023 0.0202 0.10298-0.0225 0.23358-0.0946 0.1306-0.0721 0.23901-0.14733 0.24133-0.16744 0-2e-3 -6.35e-4 -4e-3 -0.00362-4e-3 0-2e-3 -0.00135-4e-3 -0.00465-4e-3zm0.48472 0.14728c-0.027993 5e-4 -0.077872 0.023-0.13591 0.0646-0.092848 0.0664-0.20741 0.11716-0.25476 0.11214-0.047366-5e-3 -0.19262 0.0527-0.32298 0.12816-0.13029 0.0755-0.20026 0.14289-0.15503 0.14934 0.045231 6e-3 0.12713-0.0313 0.1819-0.0837 0.054767-0.0524 0.13866-0.075 0.18655-0.0501 0.1008 0.0526 0.5105-0.1797 0.524-0.29714 0.00146-0.0123-0.00286-0.0195-0.012401-0.0222-0.00314-1e-3 -0.00716-1e-3 -0.011369-1e-3zm2.2236 0.10748-0.079582 0.17622c-0.04378 0.0969-0.090317 0.27502-0.10335 0.39584l-0.02377 0.21963 0.080615-0.21291c0.044593-0.1172 0.091485-0.29532 0.10387-0.39584zm0.13901 0.0537c-0.00269-1e-3 -0.00628 6.3e-4 -0.010335 4e-3 -0.016888 0.0151-0.069691 0.18969-0.11731 0.38809-0.058269 0.24282-0.059246 0.31505-0.0031 0.22169 0.074326-0.1236 0.17209-0.602 0.13074-0.61391zm-2.3187 0.11213c-0.022865-3e-3 -0.081795 0.041-0.1819 0.13178-0.086705 0.0786-0.10803 0.12064-0.047025 0.0935 0.083148-0.0369 0.095752-0.0198 0.049609 0.0687-0.051199 0.0981-0.036685 0.10783 0.086816 0.0589 0.20846-0.0825 0.25626-0.0655 0.18707 0.0672-0.052342 0.10034-0.042582 0.10381 0.076998 0.0274 0.12047-0.077 0.12962-0.0722 0.074414 0.0357-0.034562 0.0674-0.041781 0.12468-0.016021 0.12764 0.093964 0.0108 0.34249-0.2087 0.3545-0.31316 0.01052-0.0917-0.00747-0.0952-0.12299-0.0217-0.091952 0.0586-0.11424 0.059-0.069763 1e-3 0.08348-0.10858-0.02925-0.12405-0.15813-0.0217-0.076128 0.0604-0.095983 0.0562-0.087333-0.0191 0.00908-0.079-0.01284-0.0811-0.12041-0.0109-0.11714 0.0765-0.12402 0.0688-0.060978-0.0718 0.044468-0.0991 0.057928-0.15005 0.03514-0.15348zm1.6077 0.10181c-0.062025-7e-3 -0.11735 0.0529-0.12712 0.13797-0.00952 0.0829 0.015788 0.13532 0.056327 0.11628 0.042962-0.0203 0.048272 0.0786 0.012401 0.23771-0.056811 0.25196-0.054791 0.25676 0.025839 0.0605 0.14179-0.34518 0.15307-0.53858 0.032556-0.55242zm0.30386 0.0408c-0.00279-1e-3 -0.00628-4.2e-4 -0.010335 3e-3 -0.021098 0.0168-0.075212 0.20792-0.12041 0.42479-0.057413 0.2755-0.056506 0.3413 0.00259 0.21859 0.083859-0.17423 0.17036-0.62989 0.12816-0.64596zm-1.1147 0.0656v5.3e-4c-0.024924 2e-3 -0.07634 0.0504-0.14418 0.13746-0.095466 0.12253-0.17514 0.2466-0.17725 0.27595-0.00747 0.10917 0.32441-0.26397 0.33745-0.3793 0.00209-0.0179-7.672e-4 -0.0285-0.00723-0.0326-0.00243-2e-3 -0.00525-2e-3 -0.00878-2e-3zm0.27802 0.11162c-0.032916 3e-3 -0.15124 0.1324-0.28577 0.31471-0.15376 0.20836-0.26685 0.38067-0.25166 0.38241 0.060435 7e-3 0.56006-0.62458 0.54622-0.6904-0.00106-5e-3 -0.00409-7e-3 -0.00878-6e-3zm0.34416 0.0682c-0.067709-0.0116-0.34695 0.22966-0.36122 0.3204-0.00339 0.0215 0.060744 0.0469 0.14263 0.0563 0.15051 0.0173 0.31954-0.25638 0.22893-0.37052-0.00249-3e-3 -0.00583-5e-3 -0.010335-6e-3z" stroke-width=".073649"/>
 </g>
</svg>
