<?xml version="1.0" encoding="UTF-8"?>
<svg width="50" height="50" version="1.1" viewBox="0 0 13.229167 13.229167" xmlns="http://www.w3.org/2000/svg" xmlns:cc="http://creativecommons.org/ns#" xmlns:dc="http://purl.org/dc/elements/1.1/" xmlns:rdf="http://www.w3.org/1999/02/22-rdf-syntax-ns#">
 <metadata>
  <rdf:RDF>
   <cc:Work rdf:about="">
    <dc:format>image/svg+xml</dc:format>
    <dc:type rdf:resource="http://purl.org/dc/dcmitype/StillImage"/>
    <dc:title/>
   </cc:Work>
  </rdf:RDF>
 </metadata>
 <style type="text/css">.st0{fill:#6DB33F;}
	.st1{fill:#FFFFFF;}</style>
 <style type="text/css">.st0{fill:#6DB33F;}
	.st1{fill:#FFFFFF;}</style>
 <g transform="translate(.00011275 -283.77)">
  <g transform="matrix(.26458 0 0 .26458 .16557 260.3)">
   <g transform="translate(-32.325)">
    <path transform="matrix(1 0 0 1 31.699 88.697)" d="m25.039 2.502c-5.5249-0.01935-11.062 0.33018-12.539 1.1074-2.9529 1.554-12.552 18.677-12.5 21.477 0.051999 2.799 10.275 20.386 12.5 21.477 2.225 1.0903 22.567 1.3997 25 0 2.434-1.4 12.5-19.038 12.5-21.477 0-2.438-9.6507-20.077-12.5-21.477-1.4245-0.69984-6.936-1.0881-12.461-1.1074zm0.12305 2.5254l16.447 9.4473-16.459 9.7676-16.629-9.6582 16.641-9.5566zm-17.477 11.076l15.676 8.8027-15.676 9.625v-18.428zm16.676 10.58v18.031l-15.471-8.8848 15.471-9.1465zm1.6797 0.080078l15.346 9.0996-15.291 8.7812-0.054687-17.881z" fill="#6db33f" stroke-width=".10253"/>
   </g>
  </g>
 </g>
 <g transform="translate(.11653 -.0018084)" fill="#00f">
  <g transform="translate(-.093429 -283.8)">
   <g transform="matrix(.26458 0 0 .26458 .16557 260.3)" fill="#00f"></g>
  </g>
  <g fill-rule="evenodd" stroke-linejoin="round" stroke-width="28.222">
   <g transform="matrix(.0049163 0 0 .0049163 -124.44 -16.455)"></g>
  </g>
 </g>
 <style type="text/css">.st0{fill:#6DB33F;}
	.st1{fill:#FFFFFF;}</style>
</svg>
