<?xml version="1.0" encoding="UTF-8"?>
<svg width="50" height="50" version="1.1" viewBox="0 0 13.229167 13.229167" xmlns="http://www.w3.org/2000/svg" xmlns:cc="http://creativecommons.org/ns#" xmlns:dc="http://purl.org/dc/elements/1.1/" xmlns:rdf="http://www.w3.org/1999/02/22-rdf-syntax-ns#">
 <metadata>
  <rdf:RDF>
   <cc:Work rdf:about="">
    <dc:format>image/svg+xml</dc:format>
    <dc:type rdf:resource="http://purl.org/dc/dcmitype/StillImage"/>
    <dc:title/>
   </cc:Work>
  </rdf:RDF>
 </metadata>
 <g transform="translate(.00011275 -283.77)">
  <g transform="matrix(.26458 0 0 .26458 .16557 260.3)">
   <g transform="translate(-32.325)">
    <path transform="matrix(1 0 0 1 31.699 88.707)" d="m25.039 2.4922c-5.5249-0.01935-11.062 0.33018-12.539 1.1074-2.9529 1.554-12.552 18.677-12.5 21.477 0.051999 2.799 10.275 20.386 12.5 21.477 2.225 1.0903 22.567 1.3997 25 0 2.434-1.4 12.5-19.038 12.5-21.477 0-2.438-9.6507-20.077-12.5-21.477-1.4245-0.69984-6.936-1.0881-12.461-1.1074zm1.9844 0.68164l-0.001954 0.0019531c0.76838-0.064252 1.4651 0.24884 1.9238 0.62891-0.94545 0.046375-1.9949 0.398-2.168 1.0293-0.38173 0.62952-0.48091 1.516-0.83203 2.5273-0.027212 0.070299-0.043855 0.14102-0.070312 0.21094l-0.003906-0.0019531c-0.5929 1.6766-1.9353 2.7898-3.2539 3.0684 0.39088 0.26566 0.73265 0.66672 0.96094 1.2598 0.3174 1.233 0.020352 2.42-0.30469 3.3398-0.015119 0.021922-0.021612 0.053622-0.025391 0.080078-0.28369 1.0126-0.66318 1.7537-0.63672 2.4668-0.1677 0.69766 0.73015 1.5863 1.5723 2.1543-0.49943 0.044977-1.1228-0.013157-1.6934-0.28906l-0.003906-0.001953c-0.57101-0.27636-1.0913-0.77114-1.3809-1.5996-0.29405-1.2138-0.016887-2.3889 0.30664-3.3262 0.00378-0.021543 0.025518-0.045809 0.029297-0.072265 0.28581-1.0415 0.69808-1.7734 0.66406-2.4727 0.18682-0.6415-0.76523-1.4509-1.6133-1.959-1.89e-4 0-0.001904-7.44e-4 -0.003907-0.001953 1.8189-0.13818 2.7393-1.562 3.4238-3.3809 0.026457-0.047622 0.049209-0.099367 0.060547-0.15039 0.28796-0.94163 0.72021-2.0678 1.627-2.9199 0.47652-0.37826 0.9628-0.55325 1.4238-0.5918zm2.748 4.7383c0.36701-0.013834 0.81995 0.0463 1.2285 0.26367l0.011719 0.0019532c0.40978 0.21834 0.77303 0.59036 0.95898 1.1953 0.17647 0.88169-0.062487 1.7153-0.33008 2.377-0.015118 0.01663-0.019785 0.028104-0.027344 0.050781-0.24363 0.73776-0.57019 1.2505-0.56641 1.7539-0.15772 0.45418 0.5137 1.0683 1.1191 1.4629 0.001209 7.18e-4 0.00247 0.003037 0.003906 0.003906-1.3383 0.035981-2.0585 1.0265-2.6191 2.3086-0.01663 0.03326-0.035536 0.0695-0.046875 0.10352-0.24162 0.6661-0.5944 1.4607-1.2871 2.041-0.96454 0.68084-1.9364 0.3197-2.4551-0.14258 0.6949-3.78e-4 1.4756-0.21664 1.623-0.66406 0.30032-0.43869 0.40234-1.0714 0.69336-1.7852 0.015874-0.049889 0.043476-0.10088 0.058594-0.15039h0.001953c0.48892-1.1832 1.5103-1.9356 2.4863-2.0898-0.27825-0.2044-0.51786-0.50365-0.66602-0.9375-0.19291-0.89639 0.06526-1.7377 0.33398-2.3867 0.003779-0.019275 0.011845-0.043475 0.015625-0.058593 0.24-0.71724 0.54344-1.2352 0.54688-1.748 0.14544-0.49516-0.4847-1.1621-1.084-1.5996zm-4.7734 7.0625c1.3918 0 2.7287 0.058044 4.0254 0.14648-0.25999 0.20103-0.50105 0.44669-0.70703 0.73242-1.0717-0.073701-2.1659-0.12891-3.3184-0.12891-0.53518 0-1.0488 0.026025-1.5645 0.044922 0.047622-0.14676 0.094073-0.26433 0.13867-0.42383 0.003779-0.026457 0.010272-0.057401 0.02539-0.080078 0.029481-0.083528 0.053748-0.17952 0.083985-0.26758 0.43593-0.007559 0.86922-0.021485 1.3145-0.021485l0.001953-0.001953zm-4.0566 0.14258c-0.078236 0.25531-0.14479 0.52267-0.19922 0.80273-6.1973 0.52214-10.746 2.1311-10.746 4.0566 0 2.3473 6.7157 4.25 15 4.25s15-1.9028 15-4.25c0-1.7772-3.8579-3.2951-9.3242-3.9297 0.26169-0.30425 0.55935-0.54583 0.9082-0.70117 6.3999 0.74343 10.916 2.5353 10.916 4.6309 0 1.0768-0.079596 2.1276-0.19336 3.1641a4.2501 7.5001 45 0 1 4.0918 0.4375 4.2501 7.5001 45 0 1 -2.2969 8.3086 4.2501 7.5001 45 0 1 -6.0801 3.084c-0.064252 0.091843-0.13188 0.17882-0.19727 0.26953a17.5 5.5 0 0 1 4.6758 3.7363 17.5 5.5 0 0 1 -17.5 5.5 17.5 5.5 0 0 1 -17.5 -5.5 17.5 5.5 0 0 1 4.6719 -3.7305c-2.8912-4.0135-4.6719-9.3698-4.6719-15.271 0-2.3619 5.7389-4.3341 13.445-4.8574zm22.463 9.7734a2.5 4.9999 45 0 0 -1.4023 0.31445c-0.50502 2.7228-1.3813 5.2577-2.5781 7.4961a2.5 4.9999 45 0 0 3.4004 -2.0898 2.5 4.9999 45 0 0 1.7676 -5.3047 2.5 4.9999 45 0 0 -1.1875 -0.41602z" fill="#6db33f" stroke-width=".10253"/>
   </g>
  </g>
 </g>
 <style type="text/css">.st0{fill:#6DB33F;}
	.st1{fill:#FFFFFF;}</style>
</svg>
