<?xml version="1.0" encoding="UTF-8"?>
<svg id="logoHorizontal" width="50" height="50" version="1.1" viewBox="-5.724 -43.601 50 50" xmlns="http://www.w3.org/2000/svg" xmlns:cc="http://creativecommons.org/ns#" xmlns:dc="http://purl.org/dc/elements/1.1/" xmlns:rdf="http://www.w3.org/1999/02/22-rdf-syntax-ns#">
 <metadata>
  <rdf:RDF>
   <cc:Work rdf:about="">
    <dc:format>image/svg+xml</dc:format>
    <dc:type rdf:resource="http://purl.org/dc/dcmitype/StillImage"/>
    <dc:title/>
   </cc:Work>
  </rdf:RDF>
 </metadata>
 <g fill="#fff" stroke-width=".069975">
  <path d="m43.783-23.019c-0.13561-0.10769-1.4015-1.0636-4.0712-1.0636-0.70493 0.0029-1.4084 0.06353-2.1035 0.18082-0.5167-3.5416-3.4447-5.2683-3.576-5.3457l-0.7169-0.41341-0.47149 0.68037c-0.59045 0.91395-1.0215 1.9214-1.2745 2.9797-0.478 2.0216-0.18732 3.9205 0.83963 5.5438-1.2401 0.69108-3.2294 0.86118-3.632 0.87623h-32.936c-0.86027 0.0014-1.5583 0.69639-1.563 1.5566-0.038418 2.8854 0.45043 5.7535 1.4425 8.4632 1.1346 2.9754 2.8225 5.1671 5.0185 6.5084 2.4608 1.5071 6.4588 2.3682 10.991 2.3682 2.0473 0.006457 4.0908-0.17886 6.1036-0.55329 2.798-0.51376 5.4904-1.4917 7.9659-2.8936 2.0397-1.1812 3.8754-2.6838 5.4362-4.4501 2.6094-2.9539 4.1639-6.2436 5.3199-9.1672h0.46071c2.8569 0 4.6138-1.1433 5.5826-2.1013 0.64384-0.61102 1.1465-1.3553 1.4726-2.1809l0.20454-0.5985z"/>
  <path d="m-1.106-20.545h4.4135c0.21286 0 0.38535-0.17256 0.38535-0.38535v-3.9313c0.00122-0.21287-0.17039-0.38633-0.38318-0.38752h-0.00219-4.4135c-0.21286 0-0.38535 0.17256-0.38535 0.38535v0.0021 3.9313c0 0.21286 0.17249 0.38542 0.38535 0.38542"/>
  <path d="m4.9761-20.545h4.4135c0.21286 0 0.38535-0.17256 0.38535-0.38535v-3.9313c0.00126-0.21287-0.17039-0.38633-0.38325-0.38752h-0.00219-4.4135c-0.21405 0-0.38752 0.17347-0.38752 0.38752v3.9313c0.00131 0.21322 0.17438 0.38542 0.38759 0.38542"/>
  <path d="m11.151-20.545h4.4135c0.21286 0 0.38535-0.17256 0.38535-0.38535v-3.9313c0.0012-0.21287-0.17039-0.38633-0.38325-0.38752h-0.0022-4.4136c-0.21286 0-0.38535 0.17256-0.38535 0.38535v0.0021 3.9313c7.2e-5 0.21286 0.17263 0.38542 0.38542 0.38542"/>
  <path d="m17.252-20.545h4.4135c0.21322 0 0.38633-0.17214 0.38752-0.38535v-3.9313c0-0.21406-0.17347-0.38752-0.38752-0.38752h-4.4135c-0.21286 0-0.38535 0.17256-0.38535 0.38535v0.0021 3.9313c0 0.21286 0.17256 0.38542 0.38535 0.38542"/>
  <path d="m4.9761-26.201h4.4135c0.21314-0.0014 0.38535-0.17438 0.38535-0.38752v-3.9313c0-0.21286-0.17256-0.38535-0.38535-0.38535h-4.4135c-0.21314 0-0.38633 0.17214-0.38752 0.38535v3.9313c0.00122 0.21356 0.17396 0.38633 0.38752 0.38752"/>
  <path d="m11.151-26.201h4.4135c0.21314-0.0014 0.38535-0.17438 0.38535-0.38752v-3.9313c0-0.21286-0.17256-0.38535-0.38535-0.38535h-4.4135c-0.21286 0-0.38535 0.17256-0.38535 0.38535v3.9313c0 0.21314 0.17221 0.38633 0.38535 0.38752"/>
  <path d="m17.252-26.201h4.4135c0.21356-0.0014 0.38633-0.17396 0.38752-0.38752v-3.9313c-0.0012-0.21322-0.17431-0.38535-0.38752-0.38535h-4.4135c-0.21286 0-0.38535 0.17256-0.38535 0.38535v3.9313c0 0.21314 0.17221 0.38633 0.38535 0.38752"/>
  <path d="m17.252-31.859h4.4135c0.21322 0 0.38633-0.17221 0.38752-0.38535v-3.9335c-0.0012-0.21321-0.17431-0.38535-0.38752-0.38535h-4.4135c-0.21286 0-0.38535 0.17249-0.38535 0.38535v3.9334c0 0.21286 0.17256 0.38542 0.38535 0.38542"/>
  <path d="m23.407-20.545h4.4135c0.21321 0 0.38633-0.17214 0.38752-0.38535v-3.9313c0-0.21406-0.17347-0.38752-0.38752-0.38752h-4.4135c-0.21279 0-0.38535 0.17256-0.38535 0.38535v0.0021 3.9313c0 0.21286 0.17256 0.38542 0.38535 0.38542"/>
 </g>
</svg>
