<?xml version="1.0" encoding="UTF-8"?>
<svg width="50" height="50" version="1.1" viewBox="0 0 13.229167 13.229167" xmlns="http://www.w3.org/2000/svg" xmlns:cc="http://creativecommons.org/ns#" xmlns:dc="http://purl.org/dc/elements/1.1/" xmlns:rdf="http://www.w3.org/1999/02/22-rdf-syntax-ns#">
 <metadata>
  <rdf:RDF>
   <cc:Work rdf:about="">
    <dc:format>image/svg+xml</dc:format>
    <dc:type rdf:resource="http://purl.org/dc/dcmitype/StillImage"/>
    <dc:title/>
   </cc:Work>
  </rdf:RDF>
 </metadata>
 <g transform="translate(0 -283.77)">
  <g transform="matrix(.26458 0 0 .26458 .16557 260.3)">
   <g transform="translate(-32.325)">
    <path d="m69.199 135.26c-2.4333 1.3997-22.776 1.0903-25.001 0-2.2253-1.0902-12.447-18.678-12.499-21.477-0.05199-2.7991 9.5461-19.923 12.499-21.477 2.9533-1.5545 22.152-1.3997 25.001 0 2.8493 1.3997 12.5 19.039 12.5 21.477-1.4e-5 2.4381-10.066 20.077-12.5 21.477z" fill="#6db33f" stroke-width=".10253"/>
   </g>
  </g>
 </g>
 <style type="text/css">.st0{fill:#6DB33F;}
	.st1{fill:#FFFFFF;}</style>
 <path d="m4.9348 8.734c-1.643-0.075057-3.1277-0.58629-4.1892-1.4424-0.23326-0.18814-0.66161-0.6292-0.66161-0.68125 0-0.024423 0.23794-0.29156 0.3775-0.42382 0.70193-0.66521 1.6767-1.1733 2.7716-1.4445 0.70271-0.17409 1.2093-0.23711 2.0182-0.25109 0.91058-0.015737 1.6333 0.057517 2.4029 0.24355 1.1231 0.27148 2.163 0.76944 2.9991 1.4361l0.15052 0.12002 0.12332-0.1211c0.39802-0.39085 0.78348-0.88329 1.0286-1.3141l0.08608-0.15129 0.20617 0.095732c0.11339 0.052652 0.20997 0.099533 0.21462 0.10418 0.01992 0.019917-0.18243 0.36691-0.37598 0.64475-0.06473 0.09292-0.1873 0.25534-0.27236 0.36093-0.17127 0.21259-0.59637 0.67611-0.62007 0.67611-0.04045 0 0.0012 0.054795 0.18747 0.24635 0.3257 0.33501 0.59092 0.6649 0.82842 1.0304 0.13259 0.20405 0.27173 0.45311 0.25871 0.46311-0.0073 0.00559-0.38202 0.17897-0.41366 0.19139-0.0069 0.00269-0.04798-0.056839-0.09143-0.13228-0.1793-0.31135-0.38488-0.6021-0.63395-0.89662-0.1659-0.19618-0.49694-0.5386-0.52049-0.5384-0.01026 8.29e-5 -0.05222 0.027008-0.09314 0.059817-1.0648 0.85365-2.347 1.4046-3.7846 1.626-0.63533 0.097872-1.2956 0.1304-1.9967 0.098374zm1.2424-0.49619c0.13641-0.00948 0.25813-0.020519 0.27047-0.024526 0.015674-0.00509 0.0046-0.027035-0.03672-0.072786-0.082325-0.091129-0.14927-0.23116-0.1982-0.41459-0.091041-0.34127-0.10961-0.65195-0.10981-1.8369l-1.479e-4 -0.90352-0.16626-0.011899c-0.091442-0.00655-0.16839-0.00921-0.17098-0.00591-0.00257 0.00329-0.025184 0.1548-0.050188 0.33669-0.062461 0.45435-0.045187 0.41349-0.14733 0.34849-0.1186-0.075471-0.19511-0.096958-0.3175-0.089165-0.15668 0.0099794-0.22681 0.089979-0.22482 0.25648 0.00163 0.13594 0.046348 0.19905 0.24505 0.34584 0.22187 0.16391 0.33436 0.28693 0.41803 0.4572 0.16156 0.32876 0.19064 0.7391 0.080552 1.1365-0.047418 0.17119-0.095237 0.27222-0.18504 0.39092-0.042224 0.055815-0.076773 0.10661-0.076773 0.11288 0 0.012294 0.27273 0.0018 0.66968-0.02578zm-1.6246-0.047104c-0.02261-0.018859-0.037176-0.049454-0.037132-0.077992 8.26e-5 -0.053801 0.079294-0.68576 0.086914-0.69338 0.00274-0.00274 0.037341 0.020541 0.076838 0.051797 0.15012 0.1188 0.34774 0.18465 0.47083 0.15688 0.12055-0.027188 0.17971-0.11836 0.17971-0.27695 0-0.1484-0.053106-0.22912-0.24427-0.37127-0.20532-0.15269-0.34926-0.31031-0.4264-0.46693-0.15784-0.32046-0.18071-0.68867-0.067166-1.0815 0.045302-0.15675 0.084856-0.24138 0.16635-0.35593 0.031367-0.044089 0.052969-0.084224 0.048002-0.089189-0.00815-0.00814-0.30832 0.016888-0.48517 0.040463l-0.070274 0.00937v0.62009l-0.070275 0.00909c-0.038649 0.00498-0.19509 0.022221-0.34765 0.038266l-0.27738 0.029176 0.00454 0.24884c0.00279 0.15386 0.010859 0.24795 0.021082 0.24651 0.0091-0.00132 0.15419-0.0076 0.32244-0.014046l0.3059-0.011709-0.00476 0.35869-0.00476 0.35869-0.3218-0.012003-0.3218-0.012003v0.56509l0.053741 0.00886c0.094982 0.015666 0.31452 0.040369 0.45058 0.050702 0.072755 0.00553 0.15259 0.013882 0.17741 0.018563l0.045128 0.00852 0.00449 0.32533 0.00449 0.32533 0.074408 0.00992c0.040927 0.00548 0.10789 0.010787 0.14882 0.01185l0.074408 0.00192zm3.0244-0.17256c0.31265-0.079203 0.41075-0.10958 0.41075-0.12718 0-0.00844-0.011301-0.015365-0.02512-0.015365-0.017446 0-0.022624-0.011357-0.016934-0.037204 0.0045-0.020463 0.023642-0.14882 0.042527-0.28523 0.046451-0.33551 0.034835-0.31116 0.12849-0.26919 0.1163 0.05212 0.34775 0.051759 0.45915-7.14e-4 0.04486-0.021132 0.096443-0.058335 0.11463-0.082676 0.040115-0.053687 0.044893-0.18202 0.0084-0.22598-0.013556-0.016341-0.11008-0.070625-0.21448-0.12063-0.14695-0.070378-0.21073-0.11185-0.2824-0.18365-0.25765-0.2581-0.3214-0.71591-0.14562-1.0457 0.02954-0.055416 0.081982-0.12348 0.11654-0.15126 0.034559-0.027774 0.062837-0.056115 0.062837-0.062981 0-0.012299-0.20947-0.081137-0.44072-0.14483l-0.11829-0.032582-0.00754 0.92861c-0.00784 0.96606-0.013286 1.0485-0.088602 1.342-0.053501 0.20849-0.15386 0.41757-0.252 0.52499-0.040177 0.043971-0.040402 0.045472-0.00689 0.045472 0.019059 0 0.13393-0.025145 0.25526-0.055885zm-4.5002-1.3982c0-0.72701-0.00558-1.3251-0.012408-1.3291-0.00683-4e-3 -0.079369 0.016023-0.16122 0.044498l-0.14882 0.051775-0.00951 0.90117c-0.010452 0.99133-0.014038 1.0295-0.11592 1.237-0.034301 0.069849-0.07337 0.12038-0.11817 0.15283l-0.06692 0.048479 0.064318 0.027325c0.087792 0.037297 0.52234 0.18541 0.54797 0.18678 0.016368 8.772e-4 0.020666-0.27371 0.020666-1.3207zm3.9058 0.94761c0.05431-0.027621 0.1167-0.13142 0.15231-0.25343 0.04599-0.15754 0.060964-0.52574 0.055835-1.3731l-0.0049479-0.81849-0.26456-0.044552c-0.14551-0.024502-0.27759-0.044964-0.2935-0.045471-0.02724-8.602e-4 -0.028927 0.055565-0.028804 0.96225 1.327e-4 0.98934 0.00935 1.1808 0.065842 1.3698 0.037608 0.12579 0.083665 0.19167 0.15585 0.2229 0.0529 0.022895 0.085814 0.018854 0.16198-0.019883zm2.1601-0.12057c0.3844-0.19269 0.82923-0.47056 1.1415-0.71304 0.12332-0.09576 0.15045-0.12415 0.13224-0.1384-0.29319-0.22936-0.6271-0.45639-0.90746-0.61699-0.1977-0.11325-0.38118-0.20754-0.38885-0.19984-0.00287 0.0028401-0.020994 0.068464-0.040306 0.14577-0.049998 0.20016-0.042274 0.18974-0.10509 0.14183-0.17029-0.12988-0.44486-0.19399-0.50122-0.11702-0.095719 0.13071-0.022523 0.24421 0.26658 0.41336 0.19227 0.11249 0.34086 0.24671 0.40275 0.36379 0.038715 0.073243 0.043572 0.1006 0.042594 0.23976-8.995e-4 0.12256-0.00915 0.17658-0.037702 0.24578-0.039648 0.096093-0.11493 0.21522-0.18167 0.28748-0.023096 0.025009-0.03677 0.045472-0.030383 0.045472 0.00639 0 0.099545-0.044076 0.20702-0.097951zm-7.3316-0.13767c0.00591-0.05684 0.014555-0.12319 0.019177-0.14744l0.00841-0.044093 0.091049 0.041684c0.050077 0.022922 0.11995 0.04556 0.15527 0.050296 0.05513 0.00739 0.071146 0.0017 0.11307-0.040232 0.026864-0.026864 0.056946-0.078022 0.066848-0.11368 0.019845-0.071484 0.026466-1.4786 0.00696-1.4786-0.00619 0-0.10849 0.047581-0.22736 0.10573-0.42226 0.20657-0.83929 0.48489-1.1802 0.78764l-0.15386 0.13663 0.054646 0.057164c0.082146 0.085934 0.35063 0.30864 0.50936 0.42252 0.14089 0.10108 0.49487 0.32466 0.5151 0.32535 0.00593 1.949e-4 0.015627-0.046141 0.021538-0.10298z" fill="#fff" stroke-width=".016535"/>
</svg>
