<?xml version="1.0" encoding="UTF-8"?>
<svg width="50" height="50" version="1.1" viewBox="0 0 13.229167 13.229167" xmlns="http://www.w3.org/2000/svg" xmlns:cc="http://creativecommons.org/ns#" xmlns:dc="http://purl.org/dc/elements/1.1/" xmlns:rdf="http://www.w3.org/1999/02/22-rdf-syntax-ns#">
 <metadata>
  <rdf:RDF>
   <cc:Work rdf:about="">
    <dc:format>image/svg+xml</dc:format>
    <dc:type rdf:resource="http://purl.org/dc/dcmitype/StillImage"/>
    <dc:title/>
   </cc:Work>
  </rdf:RDF>
 </metadata>
 <g transform="translate(0 -283.77)">
  <g transform="matrix(.26458 0 0 .26458 .16557 260.3)">
   <g transform="translate(-32.325)">
    <path transform="matrix(1 0 0 1 31.699 88.707)" d="m25.037 2.4922c-5.5249-0.01935-11.062 0.33018-12.539 1.1074-2.9529 1.554-12.55 18.677-12.498 21.477 0.051999 2.799 10.273 20.386 12.498 21.477 2.225 1.0903 22.569 1.3997 25.002 0 2.434-1.4 12.5-19.038 12.5-21.477 0-2.438-9.6507-20.077-12.5-21.477-1.4245-0.69984-6.938-1.0881-12.463-1.1074zm-5.1895 14.48c3.4416-0.059478 6.1733 0.21876 9.082 0.92188 4.2448 1.0261 8.1739 2.9081 11.334 5.4277l0.57031 0.45312 0.46484-0.45703c1.5043-1.4772 2.9622-3.3385 3.8887-4.9668l0.32422-0.57226 0.7793 0.36133c0.42856 0.199 0.79492 0.37697 0.8125 0.39453 0.075288 0.075277-0.69035 1.3874-1.4219 2.4375-0.24465 0.35119-0.70781 0.9642-1.0293 1.3633-0.64732 0.80349-2.2542 2.5547-2.3438 2.5547-0.15288 0 0.004972 0.20765 0.70898 0.93164 1.231 1.2662 2.2332 2.5131 3.1309 3.8945 0.50113 0.77121 1.0277 1.7122 0.97852 1.75-0.02759 0.021127-1.4449 0.67767-1.5645 0.72461-0.026079 0.010167-0.18148-0.21487-0.3457-0.5-0.67767-1.1768-1.4551-2.2775-2.3965-3.3906-0.62702-0.74147-1.8778-2.034-1.9668-2.0332-0.038778 3.13e-4 -0.1969 0.10061-0.35156 0.22461-4.0244 3.2264-8.8712 5.3097-14.305 6.1465-2.4012 0.36991-4.897 0.49214-7.5469 0.37109-6.2098-0.28368-11.82-2.2155-15.832-5.4512-0.88161-0.71108-2.5-2.3775-2.5-2.5742 0-0.092307 0.89831-1.1017 1.4258-1.6016 2.653-2.5142 6.3364-4.4359 10.475-5.4609 2.6559-0.65798 4.5716-0.89638 7.6289-0.94922zm1.9434 1.8027c-0.009714 0.012434-0.09495 0.58598-0.18945 1.2734-0.23607 1.7172-0.17059 1.5621-0.55664 1.3164-0.44825-0.28524-0.7386-0.36734-1.2012-0.33789-0.59218 0.037717-0.85713 0.34141-0.84961 0.9707 0.00616 0.51379 0.17673 0.75184 0.92773 1.3066 0.83856 0.6195 1.2619 1.085 1.5781 1.7285 0.61062 1.2426 0.72077 2.7929 0.30469 4.2949-0.17922 0.64702-0.35981 1.0279-0.69922 1.4766-0.15959 0.21095-0.28906 0.40404-0.28906 0.42773 0 0.046465 1.031 0.006583 2.5312-0.097656 0.51557-0.03583 0.97484-0.076653 1.0215-0.091797 0.05924-0.019238 0.017498-0.10247-0.13867-0.27539-0.31115-0.34442-0.56507-0.87313-0.75-1.5664-0.34409-1.2898-0.41331-2.4648-0.41406-6.9434v-3.4141l-0.62891-0.046875c-0.34561-0.024756-0.6367-0.033957-0.64648-0.021484zm-3.625 0.070312c-0.030804-0.030765-1.1656 0.063242-1.834 0.15234l-0.26562 0.035156v2.3438l-0.26562 0.035156c-0.14608 0.018822-0.73785 0.083889-1.3145 0.14453l-1.0488 0.10938 0.017578 0.94141c0.010545 0.58152 0.04144 0.93708 0.080078 0.93164 0.034394-0.004988 0.58284-0.028371 1.2188-0.052734l1.1562-0.044922-0.017578 1.3555-0.019531 1.3555-1.2148-0.044922-1.2168-0.044922v2.1348l0.20312 0.035156c0.35899 0.05921 1.1889 0.15235 1.7031 0.19141 0.27498 0.020901 0.57611 0.052621 0.66992 0.070313l0.17188 0.03125 0.015625 1.2305 0.017578 1.2285 0.28125 0.037109c0.15468 0.020712 0.4078 0.040905 0.5625 0.044922l0.28125 0.007813-0.14062-0.11719c-0.085455-0.071278-0.14079-0.18706-0.14062-0.29492 3.12e-4 -0.20334 0.29932-2.5923 0.32812-2.6211 0.010356-0.010356 0.14174 0.079132 0.29102 0.19726 0.56738 0.44901 1.3141 0.69676 1.7793 0.5918 0.45562-0.10276 0.67969-0.44748 0.67969-1.0469 0-0.56088-0.20132-0.86508-0.92383-1.4023-0.77601-0.5771-1.3198-1.1737-1.6113-1.7656-0.59656-1.2112-0.68305-2.6032-0.25391-4.0879 0.17122-0.59244 0.3209-0.9108 0.62891-1.3438 0.11855-0.16664 0.20041-0.31913 0.18164-0.33789zm6.8828 0.17578c-0.10295-0.003251-0.10789 0.20988-0.10742 3.6367 5.02e-4 3.7392 0.034534 4.4615 0.24805 5.1758 0.14214 0.47543 0.31702 0.72572 0.58984 0.84375 0.19994 0.086533 0.32346 0.070236 0.61133-0.076172 0.20527-0.10439 0.44158-0.49589 0.57617-0.95703 0.17382-0.59543 0.23032-1.9868 0.21094-5.1895l-0.019531-3.0938-1-0.16992c-0.54996-0.092606-1.0492-0.168-1.1094-0.16992zm3.9648 0.75586l-0.027344 3.5098c-0.029631 3.6513-0.051278 3.963-0.33594 5.0723-0.20221 0.78799-0.58025 1.5784-0.95117 1.9844-0.15185 0.16619-0.154 0.17188-0.027344 0.17188 0.072034 0 0.50627-0.094755 0.96484-0.21094 1.1817-0.29935 1.5527-0.41395 1.5527-0.48047 0-0.031899-0.041521-0.058594-0.09375-0.058594-0.065938 0-0.085959-0.042936-0.064453-0.14062 0.017008-0.07734 0.08878-0.56256 0.16016-1.0781 0.17556-1.2681 0.13236-1.1762 0.48633-1.0176 0.43956 0.19699 1.3133 0.19637 1.7344-0.001953 0.16955-0.079869 0.36486-0.2205 0.43359-0.3125 0.15162-0.20291 0.16918-0.68737 0.03125-0.85352-0.051235-0.061761-0.41596-0.26804-0.81055-0.45703-0.5554-0.266-0.79553-0.42199-1.0664-0.69336-0.9738-0.9755-1.2151-2.7067-0.55078-3.9531 0.11165-0.20945 0.31079-0.46532 0.44141-0.57031 0.13062-0.10497 0.23633-0.21233 0.23633-0.23828 0-0.046485-0.792-0.3081-1.666-0.54883l-0.44727-0.12305zm-17.432 0.21875c-0.025814-0.015118-0.30002 0.0623-0.60938 0.16992l-0.5625 0.19531-0.035156 3.4062c-0.039504 3.7468-0.054387 3.8896-0.43945 4.6738-0.12964 0.264-0.27599 0.45548-0.44531 0.57812l-0.25391 0.18359 0.24414 0.10352c0.33181 0.14096 1.9734 0.6999 2.0703 0.70508 0.061864 0.003315 0.078125-1.0351 0.078125-4.9922 0-2.7478-0.021068-5.0083-0.046875-5.0234zm-2.9961 1.084c-0.023395 0-0.4101 0.17866-0.85938 0.39844-1.5959 0.78074-3.1705 1.8323-4.459 2.9766l-0.58203 0.51758 0.20703 0.21484c0.31047 0.32479 1.3239 1.1672 1.9238 1.5977 0.5325 0.38204 1.8708 1.2279 1.9473 1.2305 0.022413 7.37e-4 0.05969-0.1758 0.082031-0.39062 0.022337-0.21483 0.054797-0.46499 0.072266-0.55664l0.03125-0.16602 0.34375 0.15625c0.18927 0.086634 0.4544 0.17351 0.58789 0.19141 0.20837 0.027931 0.26928 0.006139 0.42773-0.15234 0.10153-0.10153 0.21453-0.29492 0.25195-0.42969 0.075005-0.27018 0.099114-5.5879 0.025391-5.5879zm25.885 0.75977c-0.010847 0.010734-0.079353 0.26055-0.15234 0.55273-0.18897 0.75651-0.16102 0.71623-0.39844 0.53516-0.64362-0.49088-1.6815-0.73232-1.8945-0.44141-0.36177 0.49402-0.084861 0.92124 1.0078 1.5605 0.72669 0.42516 1.2876 0.93249 1.5215 1.375 0.14632 0.27682 0.1658 0.38029 0.16211 0.90625-0.0034 0.46322-0.034665 0.66814-0.14258 0.92969-0.14985 0.36319-0.43526 0.81283-0.6875 1.0859-0.087292 0.094522-0.13742 0.17188-0.11328 0.17188 0.024151 0 0.37504-0.16552 0.78125-0.36914 1.4528-0.72828 3.1342-1.7789 4.3145-2.6953 0.46609-0.36193 0.56882-0.46958 0.5-0.52344-1.1081-0.86687-2.3701-1.725-3.4297-2.332-0.74721-0.42803-1.4398-0.78496-1.4688-0.75586z" fill="#6db33f" stroke-width=".10253"/>
   </g>
  </g>
 </g>
 <style type="text/css">.st0{fill:#6DB33F;}
	.st1{fill:#FFFFFF;}</style>
</svg>
