<?xml version="1.0" encoding="UTF-8"?>
<svg width="50" height="50" version="1.1" viewBox="0 0 13.229167 13.229167" xmlns="http://www.w3.org/2000/svg" xmlns:cc="http://creativecommons.org/ns#" xmlns:dc="http://purl.org/dc/elements/1.1/" xmlns:rdf="http://www.w3.org/1999/02/22-rdf-syntax-ns#">
 <metadata>
  <rdf:RDF>
   <cc:Work rdf:about="">
    <dc:format>image/svg+xml</dc:format>
    <dc:type rdf:resource="http://purl.org/dc/dcmitype/StillImage"/>
    <dc:title/>
   </cc:Work>
  </rdf:RDF>
 </metadata>
 <g transform="translate(0 -283.77)">
  <g transform="matrix(.26458 0 0 .26458 .16557 260.3)">
   <g transform="translate(-32.325)">
    <path transform="matrix(1 0 0 1 31.699 88.707)" d="m25.037 2.4922c-5.5249-0.01935-11.062 0.33018-12.539 1.1074-2.9529 1.554-12.55 18.677-12.498 21.477 0.051999 2.799 10.273 20.386 12.498 21.477 2.225 1.0903 22.569 1.3997 25.002 0 2.434-1.4 12.5-19.038 12.5-21.477 0-2.438-9.6507-20.077-12.5-21.477-1.4245-0.69984-6.938-1.0881-12.463-1.1074zm3.8926 0.14453s4.4607 4.4628-4.2305 11.324c-6.9695 5.504-1.5903 8.641-0.003907 12.227-4.0682-3.6705-7.0537-6.9009-5.0508-9.9082 2.9398-4.4144 11.085-6.5549 9.2852-13.643zm5.377 8.7676c-9.3628 5.4301-7.6322 7.0061-5.377 10.176 2.4147 3.3989-2.8438 6.1133-2.8438 6.1133-1e-6 0 2.6156-2.1452 0.54492-4.5293-7.0193-8.088 7.6758-11.76 7.6758-11.76zm2.8223 14.453c4.0548 0.19416 5.9064 5.969-3.5059 8.4434 0 1.17e-4 0.12485-0.11131 0.16211-0.21094 8.0542-4.1853 4.3297-8.2079 1.7305-7.666-0.63709 0.1326-0.91992 0.24805-0.91992 0.24805s0.23577-0.37088 0.6875-0.53125c0.64278-0.22598 1.2665-0.31094 1.8457-0.2832zm-17.871 0.40625c0.34228-0.008989 0.53125 0.003906 0.53125 0.003906 0 0-7.803 1.8524-2.7637 2.5254 2.1278 0.28487 6.3693 0.21971 10.32-0.11133 3.229-0.27238 6.4727-0.85156 6.4727-0.85156s-1.1392 0.48832-1.9629 1.0508c-7.9231 2.0838-23.229 1.1139-18.822-1.0176 2.7949-1.351 5.1978-1.5726 6.2246-1.5996zm-1.2852 4.873s-1.8394 1.3617 0.9707 1.6523c3.6339 0.3749 6.5029 0.40543 11.469-0.55078 0 0 0.68756 0.69733 1.7676 1.0781-10.161 2.9712-21.479 0.23376-14.207-2.1797zm1.0273 4.6992s-1.64 0.95452 1.168 1.2773c3.4018 0.38809 5.1398 0.33257 8.8887-0.37695 0 0 0.98681 0.61903 2.3633 1.1543-8.4039 3.6018-19.021-0.2103-12.42-2.0547zm-4.2676 3.1172c0.40524 0.015613 0.73629 0.092187 0.94922 0.24219 0 0-0.53814-0.038326-1.4805 0.16602-0.90357 0.19404-3.7759 1.1188-2.2441 1.7852 4.2611 1.8547 19.6 1.4109 24.451-0.058593 2.551-0.77386 1.3379-1.7754 1.3379-1.7754 4.4445 2.0048-9.6564 6.0346-26.791 3.2559-5.4976-0.89116 0.94064-3.7245 3.7773-3.6152zm25.732 2.5449c-0.28117 3.6581-12.154 4.4285-19.885 3.9336-5.0811-0.32584-6.0682-1.1446-6.0684-1.1445 4.827 0.79584 12.966 0.941 19.564-0.30078 5.8488-1.1013 6.3887-2.4883 6.3887-2.4883z" fill="#6db33f" stroke-width=".10253"/>
   </g>
  </g>
 </g>
 <style type="text/css">.st0{fill:#6DB33F;}
	.st1{fill:#FFFFFF;}</style>
 <g transform="matrix(.04882 0 0 .04882 -25.702 -5.1338)"></g>
</svg>
