<?xml version="1.0" encoding="UTF-8"?>
<svg width="50" height="50" version="1.1" viewBox="0 0 13.229167 13.229167" xmlns="http://www.w3.org/2000/svg" xmlns:cc="http://creativecommons.org/ns#" xmlns:dc="http://purl.org/dc/elements/1.1/" xmlns:rdf="http://www.w3.org/1999/02/22-rdf-syntax-ns#">
 <metadata>
  <rdf:RDF>
   <cc:Work rdf:about="">
    <dc:format>image/svg+xml</dc:format>
    <dc:type rdf:resource="http://purl.org/dc/dcmitype/StillImage"/>
    <dc:title/>
   </cc:Work>
  </rdf:RDF>
 </metadata>
 <g transform="translate(0 -283.77)">
  <g transform="matrix(.26458 0 0 .26458 .16557 260.3)">
   <g transform="translate(-32.325)">
    <path transform="matrix(1 0 0 1 31.699 88.707)" d="m25.037 2.4922c-5.5249-0.01935-11.062 0.33018-12.539 1.1074-2.9529 1.554-12.55 18.677-12.498 21.477 0.051999 2.799 10.273 20.386 12.498 21.477 2.225 1.0903 22.569 1.3997 25.002 0 2.434-1.4 12.5-19.038 12.5-21.477 0-2.438-9.6507-20.077-12.5-21.477-1.4245-0.69984-6.938-1.0881-12.463-1.1074zm-5.3398 2.2793c2.9083 0 5.2734 2.3667 5.2734 5.2754 0 2.5366-1.8001 4.6583-4.1895 5.1602v2.9824c1.696 0.27336 3.1849 1.1706 4.2188 2.4531l2.4746-1.7383c-0.14115-0.47545-0.21875-0.97742-0.21875-1.498 0-2.9087 2.3651-5.2754 5.2734-5.2754 2.9083 0 5.2754 2.3667 5.2754 5.2754 0 2.9087-2.3671 5.2754-5.2754 5.2754-1.5711 0-2.98-0.69554-3.9473-1.7891l-2.4727 1.7363c0.25449 0.71376 0.40039 1.4792 0.40039 2.2793 0 0.81423-0.15094 1.5919-0.41406 2.3164l2.4785 1.7559c0.96736-1.0991 2.3794-1.7969 3.9551-1.7969 2.9083 0 5.2754 2.3647 5.2754 5.2734-1e-6 2.9087-2.3671 5.2754-5.2754 5.2754-2.9083 0-5.2734-2.3667-5.2734-5.2754 0-0.51537 0.076332-1.0112 0.21484-1.4824l-2.4941-1.7676a6.811 6.811 0 0 1 -4.1484 2.4121v3.1914c2.3655 0.51994 4.1426 2.6288 4.1426 5.1484 0 2.9087-2.3651 5.2754-5.2734 5.2754-2.9083 0-5.2754-2.3667-5.2754-5.2754 0-2.5197 1.7771-4.6285 4.1426-5.1484v-3.1914c-3.2187-0.54185-5.6816-3.3406-5.6816-6.7109 0-3.354 2.4392-6.1422 5.6348-6.7031v-3.0215c-2.3415-0.53766-4.0957-2.6341-4.0957-5.1367 0-2.9087 2.3671-5.2754 5.2754-5.2754zm0 2.7168c-1.4103 0-2.5586 1.1487-2.5586 2.5586s1.1483 2.5566 2.5586 2.5566 2.5566-1.1467 2.5566-2.5566-1.1463-2.5586-2.5566-2.5586zm12.832 7.3613c-1.4103 0-2.5566 1.1467-2.5566 2.5566s1.1463 2.5586 2.5566 2.5586c1.4103 0 2.5586-1.1487 2.5586-2.5586s-1.1483-2.5566-2.5586-2.5566zm-12.834 6.4922c-1.9669 0-3.5664 1.5995-3.5664 3.5664 0 1.9668 1.5995 3.5664 3.5664 3.5664 1.9668 0 3.5684-1.5996 3.5684-3.5664 0-1.9669-1.6015-3.5664-3.5684-3.5664zm12.834 8.5586c-1.4103 0-2.5566 1.1467-2.5566 2.5566s1.1463 2.5586 2.5566 2.5586c1.4103 0 2.5586-1.1487 2.5586-2.5586s-1.1483-2.5566-2.5586-2.5566zm-12.832 7.502c-1.4103 0-2.5586 1.1467-2.5586 2.5566 0 1.4099 1.1483 2.5586 2.5586 2.5586s2.5566-1.1487 2.5566-2.5586c0-1.4099-1.1463-2.5566-2.5566-2.5566z" fill="#6db33f" stroke-width=".10253"/>
   </g>
  </g>
 </g>
 <style type="text/css">.st0{fill:#6DB33F;}
	.st1{fill:#FFFFFF;}</style>
</svg>
