<?xml version="1.0" encoding="UTF-8"?>
<svg width="50" height="50" version="1.1" viewBox="0 0 13.229167 13.229167" xmlns="http://www.w3.org/2000/svg" xmlns:cc="http://creativecommons.org/ns#" xmlns:dc="http://purl.org/dc/elements/1.1/" xmlns:rdf="http://www.w3.org/1999/02/22-rdf-syntax-ns#">
 <metadata>
  <rdf:RDF>
   <cc:Work rdf:about="">
    <dc:format>image/svg+xml</dc:format>
    <dc:type rdf:resource="http://purl.org/dc/dcmitype/StillImage"/>
    <dc:title/>
   </cc:Work>
  </rdf:RDF>
 </metadata>
 <g transform="translate(0 -283.77)">
  <g transform="matrix(.26458 0 0 .26458 .16557 260.3)">
   <g transform="translate(-32.325)">
    <path transform="matrix(1 0 0 1 31.699 88.707)" d="m25.037 2.4922c-5.5249-0.01935-11.062 0.33018-12.539 1.1074-2.9529 1.554-12.55 18.677-12.498 21.477 0.051999 2.799 10.273 20.386 12.498 21.477 2.225 1.0903 22.569 1.3997 25.002 0 2.434-1.4 12.5-19.038 12.5-21.477 0-2.438-9.6507-20.077-12.5-21.477-1.4245-0.69984-6.938-1.0881-12.463-1.1074zm-0.96094 5.3672c0.32942 0.017839 0.63578 0.075983 0.91602 0.18164 0.72386 0.27291 1.4652 1.1076 1.8359 2.0645 0.28318 0.73076 0.35683 1.3308 0.41602 3.3711 0.10759 3.7062 0.3567 3.3397-3.1934 4.7188l-2.9863 1.1602-0.095703-0.52148c-0.053786-0.28662-0.24361-0.71036-0.42383-0.93945-0.69243-0.88029-2.5863-0.39072-4.0156 1.0371-1.7672 1.7654-2.0152 3.8797-0.50586 4.2988 0.84369 0.2343 1.1871 0.2189 3.2754-0.14648 2.0144-0.35245 4.2006-0.41307 5.1836-0.14453 0.80314 0.21938 1.6079 0.81896 1.9258 1.4336 0.13428 0.25966 0.37404 0.4707 0.5332 0.4707 0.25993 0 0.31817-0.33219 0.58594-3.2676l0.29883-3.2695 0.81055-0.26758c0.96248-0.32 2.6039-0.48833 3.2344-0.33008 0.24795 0.062229 0.75674 0.44974 1.1328 0.85938l0.68555 0.74609 0.001953-1.8379c6.39e-4 -1.0108 0.04498-2.3101 0.09961-2.8887l0.099609-1.0527 1.7383-0.57617c1.1808-0.38997 1.7441-0.51142 1.7441-0.37695 0 0.10904-0.080435 0.97257-0.17578 1.9199-0.095476 0.94735-0.1383 1.7563-0.097657 1.7969 0.052956 0.052957 3.6137-4.116 3.8887-4.5527 0.016793-0.02687 0.6845 0.26154 1.4844 0.64062l1.4531 0.69141-2.0703 2.4004c-1.1397 1.321-2.0756 2.4862-2.0781 2.5898-0.002525 0.10362 0.92396 2.352 2.0586 4.9961 1.8769 4.3746 2.0386 4.8271 1.8008 5.0332-0.56564 0.49012-3.2293 2.3496-3.3652 2.3496-0.079449 0-0.79304-1.9616-1.5859-4.3613-1.1967-3.6219-1.492-4.3633-1.7383-4.3633-0.26833 0-0.3063 0.19717-0.39844 2.0801-0.05602 1.1448-0.111 2.9875-0.12109 4.0918l-0.017578 2.0059-1.4746 0.63281c-0.8113 0.34874-1.5424 0.66435-1.623 0.69727-0.086691 0.035565-0.10457-0.55621-0.046875-1.4434 0.053749-0.82569 0.11681-2.4346 0.14062-3.5781 0.052285-2.5185-0.11155-2.7083-1.0781-1.25-1.2296 1.8552-3.4401 3.5389-5.291 4.0312-0.58065 0.15445-0.67561 0.25433-0.92969 0.96094-0.68449 1.9035-2.9465 5.0023-4.9082 6.7305-2.4966 2.1994-4.914 3.6518-6.9629 4.1758-1.4373 0.36764-2.6493 0.38885-3.9629 0.070312-0.85633-0.20754-2.2031-0.78791-2.2031-0.94922 0-0.039368 0.58586-1.3537 1.3008-2.9199 0.71493-1.5662 1.4376-3.1531 1.6074-3.5273 0.16981-0.37426 0.32813-0.68359 0.35156-0.68359 0.02351 0 0.35011 0.15211 0.72656 0.33398 0.37648 0.18191 1.1652 0.369 1.752 0.41797 0.9154 0.076355 1.277 0.018329 2.5605-0.41211 2.2871-0.76701 3.459-1.5702 3.8672-2.6504 0.22772-0.60254-0.017279-1.2403-0.59375-1.5469-0.63874-0.3396-2.7204-0.23977-5.168 0.25-2.3131 0.46288-4.4066 0.56648-5.2012 0.25586-1.2206-0.47722-1.9049-1.5815-1.8906-3.0508 0.033586-3.4441 2.7496-8.1561 7.6484-13.268 3.3158-3.4597 6.7391-5.4429 9.0449-5.3184zm6.1406 12.352c-0.22167-0.011123-0.38051 0.038047-0.45117 0.15234-0.11905 0.19262-0.66191 4.424-0.75781 5.9102l-0.068359 1.0312 0.74024-0.80664c0.85101-0.92552 1.813-2.662 2.0957-3.7852 0.28056-1.1144 0.004407-1.9745-0.73438-2.2832-0.32064-0.13398-0.60253-0.20764-0.82422-0.21875z" fill="#6db33f" stroke-width=".10253"/>
   </g>
  </g>
 </g>
 <style type="text/css">.st0{fill:#6DB33F;}
	.st1{fill:#FFFFFF;}</style>
</svg>
